<svg width="25" height="15" viewBox="0 0 16 9" fill="none" xmlns="http://www.w3.org/2000/svg">
<path d="M0.796834 7.21659L7.44591 0.22811C7.52507 0.145161 7.61082 0.0865432 7.70317 0.0522575C7.79551 0.0174188 7.89446 -3.25288e-07 8 -3.20774e-07C8.10554 -3.1626e-07 8.20449 0.0174188 8.29683 0.0522575C8.38918 0.0865433 8.47493 0.145161 8.55409 0.22811L15.223 7.21659C15.4077 7.41014 15.5 7.65207 15.5 7.9424C15.5 8.23272 15.4011 8.48157 15.2032 8.68894C15.0053 8.89631 14.7744 9 14.5106 9C14.2467 9 14.0158 8.89631 13.8179 8.68894L8 2.59217L2.18206 8.68894C1.99736 8.88249 1.76992 8.97926 1.49974 8.97926C1.22902 8.97926 0.994722 8.87558 0.796834 8.6682C0.598944 8.46083 0.5 8.21889 0.5 7.9424C0.5 7.6659 0.598944 7.42396 0.796834 7.21659Z" fill="#F8F8F8"/>
</svg>
