<svg width="25" height="15" viewBox="0 0 25 15" fill="none" xmlns="http://www.w3.org/2000/svg">
<path d="M24.4168 3.85516L13.4168 14.8552C13.2902 14.9842 12.5646 14.8018 12.4168 14.8552C12.2691 14.9094 12.5857 14.8552 12.4168 14.8552C12.5646 14.9094 12.248 14.8552 12.4168 14.8552C12.2691 14.8018 11.5435 14.9842 11.4168 14.8552L0.416844 3.85516C0.12133 3.55408 0.416844 3.30677 0.416844 2.85516C0.416844 2.40355 0.100222 1.17774 0.416844 0.855159C0.733467 0.532578 1.99468 0.855159 2.41684 0.855159C2.83901 0.855159 3.10022 0.532579 3.41684 0.855159L12.4168 10.8552L21.4168 0.855159C21.7124 0.554084 21.9845 0.855159 22.4168 0.855159C22.85 0.855159 24.1002 1.53258 24.4168 1.85516C24.7335 2.17774 24.4168 2.42505 24.4168 2.85516C24.4168 3.28527 24.7335 3.53258 24.4168 3.85516Z" fill="#F8F8F8"/>
</svg>
