<svg width="15" height="9" viewBox="0 0 15 9" fill="none" xmlns="http://www.w3.org/2000/svg">
<path d="M14.7032 1.78341L8.05409 8.77189C7.97493 8.85484 7.88918 8.91346 7.79683 8.94774C7.70449 8.98258 7.60554 9 7.5 9C7.39446 9 7.29551 8.98258 7.20317 8.94774C7.11082 8.91346 7.02507 8.85484 6.94591 8.77189L0.277045 1.78341C0.0923483 1.58986 9.49233e-08 1.34793 9.85248e-08 1.0576C1.02126e-07 0.767281 0.0989447 0.518434 0.296834 0.31106C0.494723 0.103686 0.725594 8.31779e-09 0.989446 1.13424e-08C1.2533 1.43671e-08 1.48417 0.103686 1.68206 0.31106L7.5 6.40783L13.3179 0.31106C13.5026 0.117512 13.7301 0.0207369 14.0003 0.0207369C14.271 0.0207369 14.5053 0.124423 14.7032 0.331797C14.9011 0.53917 15 0.781106 15 1.0576C15 1.3341 14.9011 1.57604 14.7032 1.78341Z" fill="#2A2B2B"/>
</svg>
