<svg width="187" height="53" viewBox="0 0 187 53" fill="none" xmlns="http://www.w3.org/2000/svg">
<path d="M1.74477 28.9969V0H7.02891V24.5936H19.8761V28.9969H1.74477Z" fill="#2A2B2B"/>
<path d="M29.7465 0V28.9969H24.4623V0H29.7465Z" fill="#2A2B2B"/>
<path d="M59.4395 0V28.9969H54.7394L40.9949 9.2456H40.7527V28.9969H35.4686V0H40.1973L53.9275 19.7655H54.1839V0H59.4395Z" fill="#2A2B2B"/>
<path d="M63.9154 4.40334V0H87.1884V4.40334H78.1726V28.9969H72.9312V4.40334H63.9154Z" fill="#2A2B2B"/>
<path d="M91.8957 28.9969H86.2555L96.5247 0H103.048L113.331 28.9969H107.691L99.9003 5.94664H99.6724L91.8957 28.9969ZM92.0809 17.6275H107.463V21.8468H92.0809V17.6275Z" fill="#2A2B2B"/>
<path d="M117.173 28.9969V0H128.112C130.353 0 132.233 0.387003 133.752 1.16101C135.281 1.93502 136.435 3.02051 137.213 4.4175C138.001 5.80505 138.396 7.42386 138.396 9.27392C138.396 11.1334 137.997 12.7475 137.199 14.1162C136.411 15.4754 135.248 16.5279 133.71 17.2736C132.171 18.0098 130.282 18.3779 128.041 18.3779H120.25V14.0171H127.329C128.639 14.0171 129.712 13.8377 130.548 13.479C131.383 13.1109 132 12.5776 132.399 11.8791C132.808 11.1712 133.012 10.3028 133.012 9.27392C133.012 8.24506 132.808 7.36722 132.399 6.64041C131.991 5.90416 131.369 5.34725 130.533 4.96969C129.698 4.58269 128.62 4.38918 127.3 4.38918H122.458V28.9969H117.173ZM132.243 15.8577L139.464 28.9969H133.567L126.474 15.8577H132.243Z" fill="#2A2B2B"/>
<path d="M148.347 20.0888C148.283 19.5303 148.022 19.0977 147.563 18.7909C147.104 18.4802 146.527 18.3248 145.83 18.3248C145.332 18.3248 144.901 18.4035 144.537 18.5608C144.173 18.7142 143.89 18.9266 143.688 19.198C143.49 19.4654 143.391 19.7702 143.391 20.1124C143.391 20.3995 143.458 20.6473 143.593 20.8557C143.731 21.0642 143.912 21.2392 144.133 21.3808C144.359 21.5184 144.6 21.6344 144.857 21.7288C145.114 21.8193 145.362 21.894 145.599 21.953L146.786 22.2598C147.174 22.3542 147.571 22.482 147.979 22.6432C148.386 22.8045 148.764 23.0169 149.112 23.2804C149.46 23.5439 149.741 23.8703 149.955 24.2597C150.172 24.649 150.281 25.1151 150.281 25.6578C150.281 26.3422 150.103 26.9498 149.747 27.4808C149.395 28.0117 148.883 28.4306 148.21 28.7374C147.541 29.0441 146.732 29.1975 145.783 29.1975C144.873 29.1975 144.086 29.054 143.421 28.7669C142.756 28.4797 142.236 28.0727 141.86 27.5457C141.484 27.0147 141.277 26.3854 141.237 25.6578H143.077C143.112 26.0944 143.255 26.4582 143.504 26.7492C143.757 27.0364 144.08 27.2507 144.471 27.3923C144.867 27.5299 145.3 27.5988 145.771 27.5988C146.289 27.5988 146.75 27.5181 147.154 27.3569C147.561 27.1917 147.882 26.9636 148.115 26.6726C148.349 26.3776 148.465 26.0334 148.465 25.6402C148.465 25.2823 148.362 24.9892 148.157 24.7611C147.955 24.533 147.68 24.3442 147.332 24.1948C146.988 24.0453 146.598 23.9136 146.163 23.7995L144.727 23.4102C143.753 23.1467 142.982 22.7593 142.412 22.248C141.846 21.7367 141.563 21.0602 141.563 20.2186C141.563 19.5224 141.753 18.9148 142.133 18.3956C142.513 17.8765 143.027 17.4734 143.676 17.1863C144.325 16.8952 145.057 16.7497 145.872 16.7497C146.695 16.7497 147.421 16.8932 148.05 17.1804C148.683 17.4675 149.181 17.8627 149.545 18.3661C149.909 18.8656 150.099 19.4398 150.115 20.0888H148.347Z" fill="#2A2B2B"/>
<path d="M153.499 29.109C153.175 29.109 152.896 28.995 152.663 28.7669C152.429 28.5348 152.312 28.2556 152.312 27.9291C152.312 27.6066 152.429 27.3313 152.663 27.1032C152.896 26.8712 153.175 26.7551 153.499 26.7551C153.824 26.7551 154.103 26.8712 154.336 27.1032C154.57 27.3313 154.686 27.6066 154.686 27.9291C154.686 28.1454 154.631 28.3441 154.52 28.525C154.413 28.702 154.271 28.8435 154.093 28.9497C153.915 29.0559 153.717 29.109 153.499 29.109Z" fill="#2A2B2B"/>
<path d="M157.205 28.9969V16.9149H161.538C162.479 16.9149 163.261 17.0761 163.882 17.3986C164.507 17.7211 164.974 18.1675 165.282 18.7378C165.591 19.3042 165.745 19.959 165.745 20.7023C165.745 21.4417 165.589 22.0926 165.276 22.655C164.968 23.2135 164.501 23.6481 163.876 23.9588C163.255 24.2695 162.473 24.4249 161.532 24.4249H158.25V22.8556H161.366C161.959 22.8556 162.442 22.7711 162.814 22.6019C163.189 22.4328 163.464 22.187 163.639 21.8645C163.813 21.542 163.9 21.1546 163.9 20.7023C163.9 20.2461 163.811 19.8508 163.633 19.5165C163.459 19.1822 163.184 18.9266 162.808 18.7496C162.436 18.5687 161.947 18.4782 161.342 18.4782H159.039V28.9969H157.205ZM163.205 23.5458L166.208 28.9969H164.119L161.176 23.5458H163.205Z" fill="#2A2B2B"/>
<path d="M169.003 29.109C168.679 29.109 168.4 28.995 168.167 28.7669C167.933 28.5348 167.816 28.2556 167.816 27.9291C167.816 27.6066 167.933 27.3313 168.167 27.1032C168.4 26.8712 168.679 26.7551 169.003 26.7551C169.328 26.7551 169.607 26.8712 169.84 27.1032C170.074 27.3313 170.19 27.6066 170.19 27.9291C170.19 28.1454 170.135 28.3441 170.024 28.525C169.917 28.702 169.775 28.8435 169.597 28.9497C169.419 29.0559 169.221 29.109 169.003 29.109Z" fill="#2A2B2B"/>
<path d="M183.267 22.9559C183.267 24.2459 183.03 25.355 182.555 26.2832C182.08 27.2074 181.429 27.9193 180.603 28.4188C179.78 28.9143 178.844 29.1621 177.795 29.1621C176.743 29.1621 175.803 28.9143 174.977 28.4188C174.154 27.9193 173.505 27.2055 173.03 26.2773C172.555 25.3491 172.318 24.242 172.318 22.9559C172.318 21.6659 172.555 20.5588 173.03 19.6345C173.505 18.7063 174.154 17.9945 174.977 17.4989C175.803 16.9994 176.743 16.7497 177.795 16.7497C178.844 16.7497 179.78 16.9994 180.603 17.4989C181.429 17.9945 182.08 18.7063 182.555 19.6345C183.03 20.5588 183.267 21.6659 183.267 22.9559ZM181.451 22.9559C181.451 21.9727 181.291 21.1448 180.97 20.4722C180.654 19.7958 180.219 19.2845 179.665 18.9384C179.115 18.5884 178.492 18.4133 177.795 18.4133C177.095 18.4133 176.47 18.5884 175.92 18.9384C175.37 19.2845 174.935 19.7958 174.615 20.4722C174.298 21.1448 174.14 21.9727 174.14 22.9559C174.14 23.9391 174.298 24.769 174.615 25.4455C174.935 26.118 175.37 26.6293 175.92 26.9793C176.47 27.3254 177.095 27.4985 177.795 27.4985C178.492 27.4985 179.115 27.3254 179.665 26.9793C180.219 26.6293 180.654 26.118 180.97 25.4455C181.291 24.769 181.451 23.9391 181.451 22.9559Z" fill="#2A2B2B"/>
<path d="M185.813 29.109C185.489 29.109 185.21 28.995 184.976 28.7669C184.743 28.5348 184.626 28.2556 184.626 27.9291C184.626 27.6066 184.743 27.3313 184.976 27.1032C185.21 26.8712 185.489 26.7551 185.813 26.7551C186.137 26.7551 186.416 26.8712 186.65 27.1032C186.883 27.3313 187 27.6066 187 27.9291C187 28.1454 186.945 28.3441 186.834 28.525C186.727 28.702 186.585 28.8435 186.407 28.9497C186.229 29.0559 186.031 29.109 185.813 29.109Z" fill="#2A2B2B"/>
<path d="M10.3404 42.8412C10.2027 42.4117 10.0176 42.027 9.78493 41.6872C9.55704 41.3427 9.28405 41.0501 8.96596 40.8094C8.64787 40.564 8.28467 40.3776 7.87637 40.2501C7.47282 40.1227 7.02891 40.059 6.54465 40.059C5.72331 40.059 4.98267 40.269 4.32275 40.689C3.66282 41.1091 3.14058 41.725 2.75602 42.5368C2.3762 43.3438 2.1863 44.3325 2.1863 45.503C2.1863 46.6782 2.37858 47.6716 2.76314 48.4834C3.1477 49.2952 3.67469 49.9111 4.34411 50.3311C5.01353 50.7511 5.77553 50.9612 6.63011 50.9612C7.42297 50.9612 8.11375 50.8007 8.70246 50.4798C9.29592 50.1588 9.75407 49.7058 10.0769 49.1205C10.4045 48.5306 10.5683 47.8368 10.5683 47.0392L11.138 47.1454H6.96482V45.3402H12.6976V46.9897C12.6976 48.2073 12.4365 49.2645 11.9143 50.1612C11.3968 51.0532 10.6799 51.7422 9.76357 52.2284C8.85201 52.7145 7.80753 52.9575 6.63011 52.9575C5.31026 52.9575 4.15183 52.6555 3.15482 52.0514C2.16256 51.4473 1.38869 50.5907 0.833215 49.4816C0.277738 48.3678 0 47.0463 0 45.5172C0 44.3609 0.16142 43.3226 0.484261 42.4022C0.807102 41.4819 1.2605 40.7008 1.84447 40.059C2.43318 39.4124 3.12396 38.9192 3.91682 38.5794C4.71443 38.2349 5.58562 38.0626 6.53041 38.0626C7.31852 38.0626 8.05203 38.1782 8.73095 38.4095C9.41461 38.6408 10.0223 38.9688 10.5541 39.3935C11.0905 39.8183 11.5344 40.3233 11.8858 40.9085C12.2371 41.489 12.4745 42.1332 12.5979 42.8412H10.3404Z" fill="#2A2B2B"/>
<path d="M15.491 52.7593V38.2608H20.6897C21.8197 38.2608 22.7573 38.4543 23.5027 38.8413C24.2528 39.2283 24.8131 39.764 25.1834 40.4484C25.5537 41.128 25.7389 41.9138 25.7389 42.8058C25.7389 43.693 25.5513 44.4741 25.1763 45.149C24.8059 45.8192 24.2457 46.3407 23.4956 46.7136C22.7502 47.0864 21.8125 47.2728 20.6826 47.2728H16.7444V45.3897H20.4832C21.1953 45.3897 21.7746 45.2883 22.2208 45.0853C22.6719 44.8824 23.0018 44.5874 23.2107 44.2004C23.4196 43.8134 23.5241 43.3485 23.5241 42.8058C23.5241 42.2583 23.4172 41.784 23.2036 41.3828C22.9947 40.9817 22.6647 40.6749 22.2137 40.4625C21.7674 40.2454 21.1811 40.1369 20.4547 40.1369H17.6916V52.7593H15.491ZM22.6909 46.218L26.2943 52.7593H23.7876L20.2553 46.218H22.6909Z" fill="#2A2B2B"/>
<path d="M41.0857 45.5101C41.0857 47.0581 40.8008 48.389 40.2311 49.5028C39.6614 50.6119 38.8804 51.4661 37.8881 52.0655C36.9006 52.6602 35.7778 52.9575 34.5197 52.9575C33.2568 52.9575 32.1292 52.6602 31.1369 52.0655C30.1494 51.4661 29.3708 50.6095 28.8011 49.4957C28.2314 48.3819 27.9465 47.0534 27.9465 45.5101C27.9465 43.9621 28.2314 42.6335 28.8011 41.5244C29.3708 40.4106 30.1494 39.5564 31.1369 38.9617C32.1292 38.3623 33.2568 38.0626 34.5197 38.0626C35.7778 38.0626 36.9006 38.3623 37.8881 38.9617C38.8804 39.5564 39.6614 40.4106 40.2311 41.5244C40.8008 42.6335 41.0857 43.9621 41.0857 45.5101ZM38.9065 45.5101C38.9065 44.3302 38.7142 43.3367 38.3297 42.5297C37.9498 41.7179 37.4276 41.1044 36.7629 40.689C36.103 40.269 35.3552 40.059 34.5197 40.059C33.6793 40.059 32.9292 40.269 32.2693 40.689C31.6093 41.1044 31.0871 41.7179 30.7025 42.5297C30.3227 43.3367 30.1328 44.3302 30.1328 45.5101C30.1328 46.69 30.3227 47.6858 30.7025 48.4975C31.0871 49.3046 31.6093 49.9181 32.2693 50.3382C32.9292 50.7535 33.6793 50.9612 34.5197 50.9612C35.3552 50.9612 36.103 50.7535 36.7629 50.3382C37.4276 49.9181 37.9498 49.3046 38.3297 48.4975C38.7142 47.6858 38.9065 46.69 38.9065 45.5101Z" fill="#2A2B2B"/>
<path d="M53.2082 38.2608H55.4159V47.7967C55.4159 48.8114 55.1761 49.7105 54.6966 50.4939C54.2171 51.2726 53.5429 51.8862 52.6741 52.3345C51.8053 52.7782 50.7869 53 49.619 53C48.4558 53 47.4398 52.7782 46.571 52.3345C45.7022 51.8862 45.028 51.2726 44.5485 50.4939C44.069 49.7105 43.8292 48.8114 43.8292 47.7967V38.2608H46.0298V47.6197C46.0298 48.2757 46.1746 48.8586 46.4642 49.3683C46.7585 49.878 47.174 50.2792 47.7104 50.5718C48.2469 50.8597 48.8831 51.0036 49.619 51.0036C50.3596 51.0036 50.9982 50.8597 51.5347 50.5718C52.0759 50.2792 52.489 49.878 52.7738 49.3683C53.0634 48.8586 53.2082 48.2757 53.2082 47.6197V38.2608Z" fill="#2A2B2B"/>
<path d="M58.6152 52.7593V38.2608H63.8139C64.9486 38.2608 65.8886 38.4661 66.634 38.8767C67.3794 39.2873 67.9373 39.849 68.3076 40.5616C68.6779 41.2696 68.863 42.0672 68.863 42.9544C68.863 43.8464 68.6755 44.6488 68.3005 45.3614C67.9301 46.0693 67.3699 46.631 66.6198 47.0463C65.8744 47.4569 64.9367 47.6622 63.8068 47.6622H60.2318V45.8074H63.6074C64.3243 45.8074 64.9059 45.6847 65.3521 45.4393C65.7984 45.1891 66.126 44.8493 66.3349 44.4199C66.5438 43.9904 66.6483 43.5019 66.6483 42.9544C66.6483 42.407 66.5438 41.9209 66.3349 41.4961C66.126 41.0713 65.7961 40.7386 65.345 40.4979C64.8988 40.2572 64.31 40.1369 63.5789 40.1369H60.8158V52.7593H58.6152Z" fill="#2A2B2B"/>
</svg>
