<svg width="207" height="60" viewBox="0 0 207 60" fill="none" xmlns="http://www.w3.org/2000/svg">
<g clip-path="url(#clip0_178_1000)">
<path d="M5.63666 22.845C5.57702 22.7826 5.63587 22.9249 5.63666 22.845C5.6377 22.7392 5.64677 22.1544 5.8158 21.8612L9.84226 16.4948L10.0214 15.5109L9.03752 15.3321L4.8347 10.5025C4.58303 10.2547 4.0653 9.44732 4.02997 9.33986C4.0049 9.26367 3.99855 9.39463 4.02997 9.33986C3.93618 9.3662 4.05958 9.28746 4.02997 9.33986C4.148 9.30672 4.66459 9.45071 5.01384 9.51871L11.901 10.7707L12.8848 10.9495L13.064 9.96571L16.1066 4.42048C16.2763 4.11463 16.1891 3.50111 16.2857 3.43665C16.2114 3.42315 16.3583 3.38823 16.2857 3.43665C16.3693 3.45185 17.2192 3.5458 17.2696 3.61551C17.3373 3.70912 17.0394 4.25318 17.0905 4.59933C17.0904 4.59867 17.0905 4.59998 17.0905 4.59933L17.9834 10.86L17.8042 11.8438L18.7881 12.0227L25.6752 13.2746C26.026 13.3339 26.5604 13.3809 26.6591 13.4535C26.6496 13.3962 26.7357 13.5097 26.6591 13.4535C26.6681 13.5208 26.7092 13.3908 26.6591 13.4535C26.589 13.5414 25.8162 14.1162 25.4961 14.2584L19.8602 17.2995L18.8763 17.1206L18.6971 18.1044L20.5739 24.5439C20.6288 24.8779 20.4311 25.4284 20.3948 25.5278C20.3674 25.6028 20.4725 25.4904 20.3948 25.5278C20.3324 25.558 19.4958 25.379 19.4109 25.3489C19.2946 25.3075 19.6652 25.6045 19.4109 25.3489C19.4105 25.3484 19.4115 25.3493 19.4109 25.3489L14.2242 20.3405L13.4195 19.1778L13.2403 20.1617L6.62053 23.0238C6.61986 23.024 6.62123 23.0235 6.62053 23.0238C6.2948 23.1724 6.74652 23.0262 6.62053 23.0238C6.52587 23.022 5.67505 22.8863 5.63666 22.845Z" fill="#FF9D48"/>
<path d="M5.63666 22.845C5.57702 22.7826 5.63587 22.9249 5.63666 22.845C5.6377 22.7392 5.64677 22.1544 5.8158 21.8612L9.84226 16.4948L10.0214 15.5109L9.03752 15.3321L4.8347 10.5025C4.58303 10.2547 4.0653 9.44732 4.02997 9.33986C4.0049 9.26367 3.99855 9.39463 4.02997 9.33986C3.93618 9.3662 4.05958 9.28746 4.02997 9.33986C4.148 9.30672 4.66459 9.45071 5.01384 9.51871L11.901 10.7707L12.8848 10.9495L13.064 9.96571L16.1066 4.42048C16.2763 4.11463 16.1891 3.50111 16.2857 3.43665C16.2114 3.42315 16.3583 3.38823 16.2857 3.43665C16.3693 3.45185 17.2192 3.5458 17.2696 3.61551C17.3373 3.70912 17.0394 4.25318 17.0905 4.59933C17.0904 4.59867 17.0905 4.59998 17.0905 4.59933L17.9834 10.86L17.8042 11.8438L18.7881 12.0227L25.6752 13.2746C26.026 13.3339 26.5604 13.3809 26.6591 13.4535C26.6496 13.3962 26.7357 13.5097 26.6591 13.4535C26.6681 13.5208 26.7092 13.3908 26.6591 13.4535C26.589 13.5414 25.8162 14.1162 25.4961 14.2584L19.8602 17.2995L18.8763 17.1206L18.6971 18.1044L20.5739 24.5439C20.6288 24.8779 20.4311 25.4284 20.3948 25.5278C20.3674 25.6028 20.4725 25.4904 20.3948 25.5278C20.3324 25.558 19.4958 25.379 19.4109 25.3489C19.2946 25.3075 19.6652 25.6045 19.4109 25.3489C19.4105 25.3484 19.4115 25.3493 19.4109 25.3489L14.2242 20.3405L13.4195 19.1778L13.2403 20.1617L6.62053 23.0238C6.61986 23.024 6.62123 23.0235 6.62053 23.0238C6.2948 23.1724 6.74652 23.0262 6.62053 23.0238C6.52587 23.022 5.67505 22.8863 5.63666 22.845Z" stroke="#FF9D48" stroke-width="1.50142"/>
</g>
<g clip-path="url(#clip1_178_1000)">
<path d="M38.113 28.7485C38.0533 28.6862 38.1122 28.8284 38.113 28.7485C38.114 28.6428 38.1231 28.058 38.2921 27.7647L42.3186 22.3983L42.4977 21.4145L41.5138 21.2357L37.311 16.4061C37.0593 16.1582 36.5416 15.3509 36.5063 15.2434C36.4812 15.1672 36.4749 15.2982 36.5063 15.2434C36.4125 15.2698 36.5359 15.191 36.5063 15.2434C36.6243 15.2103 37.1409 15.3543 37.4902 15.4223L44.3773 16.6742L45.3612 16.8531L45.5403 15.8693L48.5829 10.324C48.7526 10.0182 48.6654 9.40467 48.762 9.34022C48.6878 9.32672 48.8346 9.29179 48.762 9.34022C48.8457 9.35542 49.6955 9.44937 49.7459 9.51907C49.8136 9.61268 49.5157 10.1567 49.5668 10.5029C49.5667 10.5022 49.5669 10.5035 49.5668 10.5029L50.4597 16.7635L50.2805 17.7474L51.2644 17.9262L58.1516 19.1782C58.5023 19.2375 59.0367 19.2845 59.1354 19.357C59.1259 19.2997 59.212 19.4133 59.1354 19.357C59.1444 19.4243 59.1855 19.2944 59.1354 19.357C59.0653 19.445 58.2926 20.0198 57.9724 20.162L52.3365 23.203L51.3526 23.0242L51.1735 24.008L53.0503 30.4475C53.1051 30.7815 52.9074 31.332 52.8711 31.4313C52.8437 31.5064 52.9488 31.3939 52.8711 31.4313C52.8087 31.4616 51.9722 31.2826 51.8872 31.2525C51.7709 31.2111 52.1415 31.508 51.8872 31.2525C51.8869 31.252 51.8878 31.2529 51.8872 31.2525L46.7005 26.2441L45.8958 25.0814L45.7167 26.0652L39.0969 28.9274C39.0962 28.9276 39.0975 28.9271 39.0969 28.9274C38.7711 29.076 39.2228 28.9297 39.0969 28.9274C39.0022 28.9256 38.1514 28.7898 38.113 28.7485Z" fill="#FF9D48"/>
<path d="M38.113 28.7485C38.0533 28.6862 38.1122 28.8284 38.113 28.7485C38.114 28.6428 38.1231 28.058 38.2921 27.7647L42.3186 22.3983L42.4977 21.4145L41.5138 21.2357L37.311 16.4061C37.0593 16.1582 36.5416 15.3509 36.5063 15.2434C36.4812 15.1672 36.4749 15.2982 36.5063 15.2434C36.4125 15.2698 36.5359 15.191 36.5063 15.2434C36.6243 15.2103 37.1409 15.3543 37.4902 15.4223L44.3773 16.6742L45.3612 16.8531L45.5403 15.8693L48.5829 10.324C48.7526 10.0182 48.6654 9.40467 48.762 9.34022C48.6878 9.32672 48.8346 9.29179 48.762 9.34022C48.8457 9.35542 49.6955 9.44937 49.7459 9.51907C49.8136 9.61268 49.5157 10.1567 49.5668 10.5029C49.5667 10.5022 49.5669 10.5035 49.5668 10.5029L50.4597 16.7635L50.2805 17.7474L51.2644 17.9262L58.1516 19.1782C58.5023 19.2375 59.0367 19.2845 59.1354 19.357C59.1259 19.2997 59.212 19.4133 59.1354 19.357C59.1444 19.4243 59.1855 19.2944 59.1354 19.357C59.0653 19.445 58.2926 20.0198 57.9724 20.162L52.3365 23.203L51.3526 23.0242L51.1735 24.008L53.0503 30.4475C53.1051 30.7815 52.9074 31.332 52.8711 31.4313C52.8437 31.5064 52.9488 31.3939 52.8711 31.4313C52.8087 31.4616 51.9722 31.2826 51.8872 31.2525C51.7709 31.2111 52.1415 31.508 51.8872 31.2525C51.8869 31.252 51.8878 31.2529 51.8872 31.2525L46.7005 26.2441L45.8958 25.0814L45.7167 26.0652L39.0969 28.9274C39.0962 28.9276 39.0975 28.9271 39.0969 28.9274C38.7711 29.076 39.2228 28.9297 39.0969 28.9274C39.0022 28.9256 38.1514 28.7898 38.113 28.7485Z" stroke="#FF9D48" stroke-width="1.50142"/>
</g>
<g clip-path="url(#clip2_178_1000)">
<path d="M70.5892 34.6524C70.5295 34.59 70.5884 34.7322 70.5892 34.6524C70.5902 34.5466 70.5993 33.9618 70.7683 33.6685L74.7948 28.3021L74.9739 27.3183L73.99 27.1395L69.7872 22.3099C69.5355 22.062 69.0178 21.2547 68.9825 21.1472C68.9574 21.071 68.9511 21.202 68.9825 21.1472C68.8887 21.1736 69.0121 21.0948 68.9825 21.1472C69.1005 21.1141 69.6171 21.2581 69.9664 21.3261L76.8535 22.5781L77.8374 22.7569L78.0165 21.7731L81.0591 16.2278C81.2288 15.922 81.1416 15.3085 81.2382 15.244C81.164 15.2305 81.3108 15.1956 81.2382 15.244C81.3219 15.2592 82.1717 15.3532 82.2221 15.4229C82.2898 15.5165 81.9919 16.0606 82.043 16.4067C82.0429 16.406 82.0431 16.4074 82.043 16.4067L82.9359 22.6673L82.7567 23.6512L83.7406 23.83L90.6278 25.082C90.9785 25.1413 91.5129 25.1883 91.6116 25.2608C91.6021 25.2035 91.6882 25.3171 91.6116 25.2608C91.6206 25.3282 91.6617 25.1982 91.6116 25.2608C91.5415 25.3488 90.7688 25.9236 90.4486 26.0658L84.8127 29.1069L83.8288 28.928L83.6497 29.9118L85.5264 36.3513C85.5813 36.6853 85.3836 37.2358 85.3473 37.3351C85.3199 37.4102 85.425 37.2977 85.3473 37.3351C85.2849 37.3654 84.4484 37.1864 84.3634 37.1563C84.2471 37.1149 84.6177 37.4118 84.3634 37.1563C84.3631 37.1558 84.364 37.1567 84.3634 37.1563L79.1767 32.1479L78.372 30.9852L78.1929 31.969L71.573 34.8312C71.5724 34.8314 71.5737 34.8309 71.573 34.8312C71.2473 34.9798 71.699 34.8335 71.573 34.8312C71.4784 34.8294 70.6276 34.6936 70.5892 34.6524Z" fill="#FF9D48"/>
<path d="M70.5892 34.6524C70.5295 34.59 70.5884 34.7322 70.5892 34.6524C70.5902 34.5466 70.5993 33.9618 70.7683 33.6685L74.7948 28.3021L74.9739 27.3183L73.99 27.1395L69.7872 22.3099C69.5355 22.062 69.0178 21.2547 68.9825 21.1472C68.9574 21.071 68.9511 21.202 68.9825 21.1472C68.8887 21.1736 69.0121 21.0948 68.9825 21.1472C69.1005 21.1141 69.6171 21.2581 69.9664 21.3261L76.8535 22.5781L77.8374 22.7569L78.0165 21.7731L81.0591 16.2278C81.2288 15.922 81.1416 15.3085 81.2382 15.244C81.164 15.2305 81.3108 15.1956 81.2382 15.244C81.3219 15.2592 82.1717 15.3532 82.2221 15.4229C82.2898 15.5165 81.9919 16.0606 82.043 16.4067C82.0429 16.406 82.0431 16.4074 82.043 16.4067L82.9359 22.6673L82.7567 23.6512L83.7406 23.83L90.6278 25.082C90.9785 25.1413 91.5129 25.1883 91.6116 25.2608C91.6021 25.2035 91.6882 25.3171 91.6116 25.2608C91.6206 25.3282 91.6617 25.1982 91.6116 25.2608C91.5415 25.3488 90.7688 25.9236 90.4486 26.0658L84.8127 29.1069L83.8288 28.928L83.6497 29.9118L85.5264 36.3513C85.5813 36.6853 85.3836 37.2358 85.3473 37.3351C85.3199 37.4102 85.425 37.2977 85.3473 37.3351C85.2849 37.3654 84.4484 37.1864 84.3634 37.1563C84.2471 37.1149 84.6177 37.4118 84.3634 37.1563C84.3631 37.1558 84.364 37.1567 84.3634 37.1563L79.1767 32.1479L78.372 30.9852L78.1929 31.969L71.573 34.8312C71.5724 34.8314 71.5737 34.8309 71.573 34.8312C71.2473 34.9798 71.699 34.8335 71.573 34.8312C71.4784 34.8294 70.6276 34.6936 70.5892 34.6524Z" stroke="#FF9D48" stroke-width="1.50142"/>
</g>
<g clip-path="url(#clip3_178_1000)">
<path d="M103.065 40.5559C103.006 40.4935 103.065 40.6358 103.065 40.5559C103.067 40.4501 103.076 39.8653 103.245 39.5721L107.271 34.2057L107.45 33.2219L106.466 33.043L102.264 28.2135C102.012 27.9656 101.494 27.1583 101.459 27.0508C101.434 26.9746 101.427 27.1056 101.459 27.0508C101.365 27.0771 101.488 26.9984 101.459 27.0508C101.577 27.0177 102.093 27.1616 102.443 27.2297L109.33 28.4816L110.314 28.6605L110.493 27.6767L113.535 22.1314C113.705 21.8256 113.618 21.212 113.715 21.1476C113.64 21.1341 113.787 21.0992 113.715 21.1476C113.798 21.1628 114.648 21.2567 114.698 21.3264C114.766 21.4201 114.468 21.9641 114.519 22.3103C114.519 22.3096 114.519 22.3109 114.519 22.3103L115.412 28.5709L115.233 29.5547L116.217 29.7336L123.104 30.9856C123.455 31.0448 123.989 31.0919 124.088 31.1644C124.078 31.1071 124.165 31.2206 124.088 31.1644C124.097 31.2317 124.138 31.1018 124.088 31.1644C124.018 31.2524 123.245 31.8272 122.925 31.9694L117.289 35.0104L116.305 34.8316L116.126 35.8154L118.003 42.2549C118.058 42.5888 117.86 43.1394 117.824 43.2387C117.796 43.3138 117.901 43.2013 117.824 43.2387C117.761 43.269 116.925 43.0899 116.84 43.0599C116.723 43.0184 117.094 43.3154 116.84 43.0599C116.839 43.0593 116.84 43.0603 116.84 43.0599L111.653 38.0514L110.848 36.8888L110.669 37.8726L104.049 40.7348C104.049 40.735 104.05 40.7344 104.049 40.7348C103.724 40.8834 104.175 40.7371 104.049 40.7348C103.955 40.733 103.104 40.5972 103.065 40.5559Z" fill="#FF9D48"/>
<path d="M103.065 40.5559C103.006 40.4935 103.065 40.6358 103.065 40.5559C103.067 40.4501 103.076 39.8653 103.245 39.5721L107.271 34.2057L107.45 33.2219L106.466 33.043L102.264 28.2135C102.012 27.9656 101.494 27.1583 101.459 27.0508C101.434 26.9746 101.427 27.1056 101.459 27.0508C101.365 27.0771 101.488 26.9984 101.459 27.0508C101.577 27.0177 102.093 27.1616 102.443 27.2297L109.33 28.4816L110.314 28.6605L110.493 27.6767L113.535 22.1314C113.705 21.8256 113.618 21.212 113.715 21.1476C113.64 21.1341 113.787 21.0992 113.715 21.1476C113.798 21.1628 114.648 21.2567 114.698 21.3264C114.766 21.4201 114.468 21.9641 114.519 22.3103C114.519 22.3096 114.519 22.3109 114.519 22.3103L115.412 28.5709L115.233 29.5547L116.217 29.7336L123.104 30.9856C123.455 31.0448 123.989 31.0919 124.088 31.1644C124.078 31.1071 124.165 31.2206 124.088 31.1644C124.097 31.2317 124.138 31.1018 124.088 31.1644C124.018 31.2524 123.245 31.8272 122.925 31.9694L117.289 35.0104L116.305 34.8316L116.126 35.8154L118.003 42.2549C118.058 42.5888 117.86 43.1394 117.824 43.2387C117.796 43.3138 117.901 43.2013 117.824 43.2387C117.761 43.269 116.925 43.0899 116.84 43.0599C116.723 43.0184 117.094 43.3154 116.84 43.0599C116.839 43.0593 116.84 43.0603 116.84 43.0599L111.653 38.0514L110.848 36.8888L110.669 37.8726L104.049 40.7348C104.049 40.735 104.05 40.7344 104.049 40.7348C103.724 40.8834 104.175 40.7371 104.049 40.7348C103.955 40.733 103.104 40.5972 103.065 40.5559Z" stroke="#FF9D48" stroke-width="1.50142"/>
</g>
<g clip-path="url(#clip4_178_1000)">
<path d="M135.542 46.4597V46.4597C135.482 46.3974 135.541 46.5396 135.542 46.4597C135.543 46.354 135.552 45.7691 135.721 45.4759V45.4759L139.747 40.1095C139.912 39.8192 139.182 39.1856 138.943 38.9468L134.74 34.1173V34.1173C134.488 33.8694 133.97 33.0621 133.935 32.9546C133.91 32.8784 133.904 33.0094 133.935 32.9546V32.9546C133.965 32.9022 133.841 32.9809 133.935 32.9546C134.053 32.9215 134.57 33.0655 134.919 33.1335V33.1335L141.806 34.3854C142.134 34.4471 142.812 33.8677 142.969 33.5805L146.012 28.0352C146.181 27.7294 146.094 27.1159 146.191 27.0514C146.263 27.003 146.116 27.0379 146.191 27.0514C146.274 27.0666 147.124 27.1605 147.175 27.2303C147.242 27.3239 146.944 27.8679 146.995 28.2141C146.996 28.2147 146.995 28.2134 146.995 28.2141L147.888 34.4747C147.934 34.7988 148.364 35.5796 148.693 35.6374L155.58 36.8894V36.8894C155.931 36.9486 156.465 36.9957 156.564 37.0682C156.641 37.1244 156.555 37.0109 156.564 37.0682C156.573 37.1355 156.614 37.0056 156.564 37.0682C156.494 37.1562 155.721 37.731 155.401 37.8732V37.8732L149.765 40.9142C149.457 41.0534 148.55 41.3894 148.602 41.7192L150.479 48.1587V48.1587C150.534 48.4926 150.336 49.0432 150.3 49.1425C150.272 49.2176 150.378 49.1051 150.3 49.1425V49.1425C150.237 49.1728 149.401 48.9937 149.316 48.9637C149.2 48.9222 149.57 49.2192 149.316 48.9637C149.316 48.9631 149.316 48.964 149.316 48.9637L144.129 43.9553C143.9 43.7217 143.443 43.6385 143.145 43.7764L136.526 46.6386C136.525 46.6389 136.526 46.6384 136.526 46.6386C136.2 46.7872 136.652 46.6409 136.526 46.6386C136.431 46.6368 135.58 46.501 135.542 46.4597Z" stroke="#FF9D48" stroke-width="1.50142" stroke-linejoin="round"/>
<mask id="mask0_178_1000" style="mask-type:luminance" maskUnits="userSpaceOnUse" x="133" y="26" width="25" height="24">
<path d="M135.542 46.4597C135.482 46.3974 135.541 46.5396 135.542 46.4597C135.543 46.354 135.552 45.7691 135.721 45.4759L139.747 40.1095C139.912 39.8192 139.182 39.1856 138.943 38.9468L134.74 34.1173C134.488 33.8694 133.97 33.0621 133.935 32.9546C133.91 32.8784 133.904 33.0094 133.935 32.9546C133.841 32.9809 133.965 32.9022 133.935 32.9546C134.053 32.9215 134.57 33.0655 134.919 33.1335L141.806 34.3854C142.134 34.4471 142.812 33.8677 142.969 33.5805L146.012 28.0352C146.181 27.7293 146.094 27.1159 146.191 27.0514C146.116 27.0379 146.263 27.003 146.191 27.0514C146.274 27.0666 147.124 27.1605 147.175 27.2303C147.242 27.3239 146.944 27.8679 146.995 28.2141C146.995 28.2134 146.996 28.2147 146.995 28.2141L147.888 34.4747C147.934 34.7988 148.364 35.5796 148.693 35.6374L155.58 36.8894C155.931 36.9486 156.465 36.9957 156.564 37.0682C156.555 37.0109 156.641 37.1244 156.564 37.0682C156.573 37.1355 156.614 37.0055 156.564 37.0682C156.494 37.1562 155.721 37.731 155.401 37.8732L149.765 40.9142C149.457 41.0534 148.55 41.3894 148.602 41.7192L150.479 48.1587C150.534 48.4926 150.336 49.0432 150.3 49.1425C150.272 49.2176 150.378 49.1051 150.3 49.1425C150.237 49.1728 149.401 48.9937 149.316 48.9637C149.2 48.9222 149.57 49.2192 149.316 48.9637C149.316 48.9631 149.316 48.9641 149.316 48.9637L144.129 43.9553C143.9 43.7217 143.443 43.6385 143.145 43.7764L136.526 46.6386C136.525 46.6388 136.526 46.6382 136.526 46.6386C136.2 46.7872 136.652 46.6409 136.526 46.6386C136.431 46.6368 135.58 46.501 135.542 46.4597Z" fill="white"/>
<path d="M135.542 46.4597C135.482 46.3974 135.541 46.5396 135.542 46.4597C135.543 46.354 135.552 45.7691 135.721 45.4759L139.747 40.1095C139.912 39.8192 139.182 39.1856 138.943 38.9468L134.74 34.1173C134.488 33.8694 133.97 33.0621 133.935 32.9546C133.91 32.8784 133.904 33.0094 133.935 32.9546C133.841 32.9809 133.965 32.9022 133.935 32.9546C134.053 32.9215 134.57 33.0655 134.919 33.1335L141.806 34.3854C142.134 34.4471 142.812 33.8677 142.969 33.5805L146.012 28.0352C146.181 27.7293 146.094 27.1159 146.191 27.0514C146.116 27.0379 146.263 27.003 146.191 27.0514C146.274 27.0666 147.124 27.1605 147.175 27.2303C147.242 27.3239 146.944 27.8679 146.995 28.2141C146.995 28.2134 146.996 28.2147 146.995 28.2141L147.888 34.4747C147.934 34.7988 148.364 35.5796 148.693 35.6374L155.58 36.8894C155.931 36.9486 156.465 36.9957 156.564 37.0682C156.555 37.0109 156.641 37.1244 156.564 37.0682C156.573 37.1355 156.614 37.0055 156.564 37.0682C156.494 37.1562 155.721 37.731 155.401 37.8732L149.765 40.9142C149.457 41.0534 148.55 41.3894 148.602 41.7192L150.479 48.1587C150.534 48.4926 150.336 49.0432 150.3 49.1425C150.272 49.2176 150.378 49.1051 150.3 49.1425C150.237 49.1728 149.401 48.9937 149.316 48.9637C149.2 48.9222 149.57 49.2192 149.316 48.9637C149.316 48.9631 149.316 48.9641 149.316 48.9637L144.129 43.9553C143.9 43.7217 143.443 43.6385 143.145 43.7764L136.526 46.6386C136.525 46.6388 136.526 46.6382 136.526 46.6386C136.2 46.7872 136.652 46.6409 136.526 46.6386C136.431 46.6368 135.58 46.501 135.542 46.4597Z" stroke="white" stroke-width="1.50142" stroke-linejoin="round"/>
</mask>
<g mask="url(#mask0_178_1000)">
<path d="M146.191 27.0514L133.4 24.7263L129.459 46.3704L142.25 48.6955L146.191 27.0514Z" fill="#FF9D48" stroke="#FF9D48" stroke-width="2.25213"/>
</g>
</g>
<defs>
<clipPath id="clip0_178_1000">
<rect width="24" height="23" fill="white" transform="matrix(0.983876 0.178853 -0.179139 0.983824 4.65833 0.306641)"/>
</clipPath>
<clipPath id="clip1_178_1000">
<rect width="24" height="23" fill="white" transform="matrix(0.983876 0.178853 -0.179139 0.983824 37.1346 6.21021)"/>
</clipPath>
<clipPath id="clip2_178_1000">
<rect width="24" height="23" fill="white" transform="matrix(0.983876 0.178853 -0.179139 0.983824 69.6108 12.114)"/>
</clipPath>
<clipPath id="clip3_178_1000">
<rect width="24" height="23" fill="white" transform="matrix(0.983876 0.178853 -0.179139 0.983824 102.087 18.0176)"/>
</clipPath>
<clipPath id="clip4_178_1000">
<rect width="24" height="23" fill="white" transform="matrix(0.983876 0.178853 -0.179139 0.983824 134.563 23.9214)"/>
</clipPath>
</defs>
</svg>
