<svg width="32" height="32" viewBox="0 0 32 32" fill="none" xmlns="http://www.w3.org/2000/svg">
<path fill-rule="evenodd" clip-rule="evenodd" d="M9 7C9.09184 8.17414 9.63265 8.90501 10 10L8 12C7.37245 10.4169 7.13776 8.74143 7 7H9ZM22 23C23.1184 23.3711 23.8421 23.9072 25 24V26C23.2632 25.8608 21.5921 25.6186 20 25L22 23ZM10 4H5C4.26667 4 4 4.26667 4 5C4 17.52 14.48 28 27 28C27.7333 28 28 27.7333 28 27V22C28 21.2667 27.7333 21 27 21C25.3467 21 23.4933 20.4933 22 20C21.8667 19.9467 21.1333 20 21 20C20.6533 20 21.2667 19.7467 21 20L18 23C14.2267 21.0667 10.92 17.7733 9 14L12 11C12.3733 10.6267 12.1467 10.4667 12 10C11.5067 8.50667 11 6.66667 11 5C11 4.26667 10.7333 4 10 4Z" fill="#2E72B0"/>
</svg>
