<svg width="60" height="60" viewBox="0 0 60 60" fill="none" xmlns="http://www.w3.org/2000/svg">
<circle cx="30" cy="30" r="30" fill="#2E72B0"/>
<g clip-path="url(#clip0_199_1236)">
<path d="M30 15.2414C34.8094 15.2414 35.3789 15.2625 37.2703 15.3469C39.0281 15.4242 39.9773 15.7195 40.6102 15.9656C41.4469 16.2891 42.0516 16.6828 42.6773 17.3086C43.3102 17.9414 43.6969 18.5391 44.0203 19.3758C44.2664 20.0086 44.5617 20.9648 44.6391 22.7156C44.7234 24.6141 44.7445 25.1836 44.7445 29.9859C44.7445 34.7953 44.7234 35.3648 44.6391 37.2562C44.5617 39.0141 44.2664 39.9633 44.0203 40.5961C43.6969 41.4328 43.3031 42.0375 42.6773 42.6633C42.0445 43.2961 41.4469 43.6828 40.6102 44.0062C39.9773 44.2523 39.0211 44.5476 37.2703 44.625C35.3719 44.7094 34.8023 44.7305 30 44.7305C25.1906 44.7305 24.6211 44.7094 22.7297 44.625C20.9719 44.5476 20.0227 44.2523 19.3898 44.0062C18.5531 43.6828 17.9484 43.2891 17.3227 42.6633C16.6898 42.0305 16.3031 41.4328 15.9797 40.5961C15.7336 39.9633 15.4383 39.007 15.3609 37.2562C15.2766 35.3578 15.2555 34.7883 15.2555 29.9859C15.2555 25.1766 15.2766 24.607 15.3609 22.7156C15.4383 20.9578 15.7336 20.0086 15.9797 19.3758C16.3031 18.5391 16.6969 17.9344 17.3227 17.3086C17.9555 16.6758 18.5531 16.2891 19.3898 15.9656C20.0227 15.7195 20.9789 15.4242 22.7297 15.3469C24.6211 15.2625 25.1906 15.2414 30 15.2414ZM30 12C25.1133 12 24.5016 12.0211 22.582 12.1055C20.6695 12.1898 19.3547 12.4992 18.2156 12.9422C17.0273 13.4062 16.0219 14.018 15.0234 15.0234C14.018 16.0219 13.4062 17.0273 12.9422 18.2086C12.4992 19.3547 12.1898 20.6625 12.1055 22.575C12.0211 24.5016 12 25.1133 12 30C12 34.8867 12.0211 35.4984 12.1055 37.418C12.1898 39.3305 12.4992 40.6453 12.9422 41.7844C13.4062 42.9727 14.018 43.9781 15.0234 44.9766C16.0219 45.975 17.0273 46.5937 18.2086 47.0508C19.3547 47.4937 20.6625 47.8031 22.575 47.8875C24.4945 47.9719 25.1062 47.993 29.993 47.993C34.8797 47.993 35.4914 47.9719 37.4109 47.8875C39.3234 47.8031 40.6383 47.4937 41.7773 47.0508C42.9586 46.5937 43.9641 45.975 44.9625 44.9766C45.9609 43.9781 46.5797 42.9727 47.0367 41.7914C47.4797 40.6453 47.7891 39.3375 47.8734 37.425C47.9578 35.5055 47.9789 34.8937 47.9789 30.007C47.9789 25.1203 47.9578 24.5086 47.8734 22.5891C47.7891 20.6766 47.4797 19.3617 47.0367 18.2227C46.5937 17.0273 45.982 16.0219 44.9766 15.0234C43.9781 14.025 42.9727 13.4062 41.7914 12.9492C40.6453 12.5062 39.3375 12.1969 37.425 12.1125C35.4984 12.0211 34.8867 12 30 12Z" fill="#F8F8F8"/>
<path d="M30 20.7539C24.8953 20.7539 20.7539 24.8953 20.7539 30C20.7539 35.1047 24.8953 39.2461 30 39.2461C35.1047 39.2461 39.2461 35.1047 39.2461 30C39.2461 24.8953 35.1047 20.7539 30 20.7539ZM30 35.9977C26.6883 35.9977 24.0023 33.3117 24.0023 30C24.0023 26.6883 26.6883 24.0023 30 24.0023C33.3117 24.0023 35.9977 26.6883 35.9977 30C35.9977 33.3117 33.3117 35.9977 30 35.9977Z" fill="#F8F8F8"/>
<path d="M41.7703 20.3886C41.7703 21.5839 40.8 22.5472 39.6117 22.5472C38.4164 22.5472 37.4531 21.5769 37.4531 20.3886C37.4531 19.1933 38.4234 18.23 39.6117 18.23C40.8 18.23 41.7703 19.2003 41.7703 20.3886Z" fill="#F8F8F8"/>
</g>
<defs>
<clipPath id="clip0_199_1236">
<rect width="36" height="36" fill="white" transform="translate(12 12)"/>
</clipPath>
</defs>
</svg>
