<svg width="230" height="85" viewBox="0 0 230 85" fill="none" xmlns="http://www.w3.org/2000/svg">
<path d="M3.44318 46V11.0909H9.76705V40.6989H25.142V46H3.44318ZM36.9545 11.0909V46H30.6307V11.0909H36.9545ZM72.4901 11.0909V46H66.8651L50.4162 22.2216H50.1264V46H43.8026V11.0909H49.4616L65.8935 34.8864H66.2003V11.0909H72.4901ZM77.8466 16.392V11.0909H105.699V16.392H94.9091V46H88.6364V16.392H77.8466ZM111.332 46H104.582L116.872 11.0909H124.679L136.986 46H130.236L120.912 18.25H120.639L111.332 46ZM111.554 32.3125H129.963V37.392H111.554V32.3125ZM141.584 46V11.0909H154.675C157.357 11.0909 159.607 11.5568 161.425 12.4886C163.254 13.4205 164.635 14.7273 165.567 16.4091C166.51 18.0795 166.982 20.0284 166.982 22.2557C166.982 24.4943 166.504 26.4375 165.55 28.0852C164.607 29.7216 163.214 30.9886 161.374 31.8864C159.533 32.7727 157.271 33.2159 154.589 33.2159H145.266V27.9659H153.737C155.305 27.9659 156.589 27.75 157.589 27.3182C158.589 26.875 159.328 26.233 159.805 25.392C160.294 24.5398 160.538 23.4943 160.538 22.2557C160.538 21.017 160.294 19.9602 159.805 19.0852C159.317 18.1989 158.572 17.5284 157.572 17.0739C156.572 16.608 155.283 16.375 153.703 16.375H147.908V46H141.584ZM159.618 30.1818L168.26 46H161.203L152.714 30.1818H159.618ZM178.891 35.2756C178.815 34.6032 178.502 34.0824 177.953 33.7131C177.404 33.339 176.713 33.152 175.879 33.152C175.283 33.152 174.767 33.2467 174.331 33.4361C173.895 33.6207 173.557 33.8764 173.315 34.2031C173.079 34.5251 172.96 34.892 172.96 35.304C172.96 35.6496 173.041 35.9479 173.202 36.1989C173.367 36.4498 173.583 36.6605 173.848 36.831C174.118 36.9967 174.407 37.1364 174.714 37.25C175.022 37.3589 175.318 37.4489 175.602 37.5199L177.023 37.8892C177.487 38.0028 177.963 38.1567 178.45 38.3509C178.938 38.545 179.39 38.8007 179.807 39.1179C180.223 39.4351 180.56 39.8281 180.815 40.2969C181.076 40.7656 181.206 41.3267 181.206 41.9801C181.206 42.804 180.993 43.5355 180.567 44.1747C180.145 44.8139 179.532 45.3182 178.727 45.6875C177.927 46.0568 176.959 46.2415 175.822 46.2415C174.733 46.2415 173.791 46.0687 172.996 45.723C172.2 45.3774 171.578 44.8873 171.128 44.2528C170.678 43.6136 170.429 42.8561 170.382 41.9801H172.584C172.626 42.5057 172.797 42.9437 173.095 43.294C173.398 43.6397 173.784 43.8977 174.253 44.0682C174.726 44.2339 175.245 44.3168 175.808 44.3168C176.428 44.3168 176.98 44.2197 177.463 44.0256C177.951 43.8267 178.334 43.5521 178.614 43.2017C178.893 42.8466 179.033 42.4323 179.033 41.9588C179.033 41.5279 178.91 41.1752 178.663 40.9006C178.422 40.6259 178.093 40.3987 177.676 40.2188C177.264 40.0388 176.798 39.8802 176.277 39.7429L174.558 39.2741C173.393 38.9569 172.47 38.4905 171.788 37.875C171.111 37.2595 170.773 36.4451 170.773 35.4318C170.773 34.5938 171 33.8622 171.455 33.2372C171.909 32.6122 172.525 32.1269 173.301 31.7813C174.078 31.4309 174.954 31.2557 175.929 31.2557C176.914 31.2557 177.783 31.4285 178.535 31.7741C179.293 32.1198 179.89 32.5956 180.325 33.2017C180.761 33.803 180.988 34.4943 181.007 35.2756H178.891ZM185.057 46.1349C184.669 46.1349 184.335 45.9976 184.056 45.723C183.776 45.4437 183.637 45.1075 183.637 44.7145C183.637 44.3262 183.776 43.9948 184.056 43.7202C184.335 43.4408 184.669 43.3011 185.057 43.3011C185.445 43.3011 185.779 43.4408 186.059 43.7202C186.338 43.9948 186.478 44.3262 186.478 44.7145C186.478 44.9749 186.411 45.214 186.279 45.4318C186.151 45.6449 185.98 45.8153 185.767 45.9432C185.554 46.071 185.318 46.1349 185.057 46.1349ZM189.493 46V31.4545H194.677C195.804 31.4545 196.739 31.6487 197.483 32.0369C198.231 32.4252 198.789 32.9626 199.159 33.6491C199.528 34.331 199.713 35.1193 199.713 36.0142C199.713 36.9044 199.526 37.688 199.152 38.3651C198.782 39.0374 198.224 39.5606 197.475 39.9347C196.732 40.3087 195.797 40.4957 194.67 40.4957H190.743V38.6065H194.471C195.181 38.6065 195.759 38.5047 196.204 38.3011C196.654 38.0975 196.983 37.8016 197.191 37.4134C197.4 37.0251 197.504 36.5587 197.504 36.0142C197.504 35.465 197.397 34.9891 197.184 34.5866C196.976 34.1842 196.647 33.8764 196.197 33.6634C195.752 33.4456 195.167 33.3366 194.443 33.3366H191.687V46H189.493ZM196.673 39.4375L200.267 46H197.767L194.244 39.4375H196.673ZM203.612 46.1349C203.224 46.1349 202.89 45.9976 202.61 45.723C202.331 45.4437 202.191 45.1075 202.191 44.7145C202.191 44.3262 202.331 43.9948 202.61 43.7202C202.89 43.4408 203.224 43.3011 203.612 43.3011C204 43.3011 204.334 43.4408 204.613 43.7202C204.893 43.9948 205.032 44.3262 205.032 44.7145C205.032 44.9749 204.966 45.214 204.833 45.4318C204.706 45.6449 204.535 45.8153 204.322 45.9432C204.109 46.071 203.872 46.1349 203.612 46.1349ZM220.682 38.7273C220.682 40.2803 220.398 41.6155 219.83 42.733C219.262 43.8456 218.483 44.7027 217.493 45.304C216.508 45.9006 215.389 46.1989 214.134 46.1989C212.874 46.1989 211.75 45.9006 210.76 45.304C209.775 44.7027 208.999 43.8433 208.431 42.7259C207.863 41.6084 207.578 40.2756 207.578 38.7273C207.578 37.1742 207.863 35.8414 208.431 34.7287C208.999 33.6113 209.775 32.7543 210.76 32.1577C211.75 31.5563 212.874 31.2557 214.134 31.2557C215.389 31.2557 216.508 31.5563 217.493 32.1577C218.483 32.7543 219.262 33.6113 219.83 34.7287C220.398 35.8414 220.682 37.1742 220.682 38.7273ZM218.509 38.7273C218.509 37.5436 218.317 36.5469 217.934 35.7372C217.555 34.9228 217.034 34.3073 216.371 33.8906C215.713 33.4692 214.967 33.2585 214.134 33.2585C213.296 33.2585 212.548 33.4692 211.89 33.8906C211.231 34.3073 210.711 34.9228 210.327 35.7372C209.948 36.5469 209.759 37.5436 209.759 38.7273C209.759 39.911 209.948 40.91 210.327 41.7244C210.711 42.5341 211.231 43.1496 211.89 43.571C212.548 43.9877 213.296 44.196 214.134 44.196C214.967 44.196 215.713 43.9877 216.371 43.571C217.034 43.1496 217.555 42.5341 217.934 41.7244C218.317 40.91 218.509 39.911 218.509 38.7273ZM223.729 46.1349C223.341 46.1349 223.007 45.9976 222.728 45.723C222.448 45.4437 222.309 45.1075 222.309 44.7145C222.309 44.3262 222.448 43.9948 222.728 43.7202C223.007 43.4408 223.341 43.3011 223.729 43.3011C224.117 43.3011 224.451 43.4408 224.73 43.7202C225.01 43.9948 225.149 44.3262 225.149 44.7145C225.149 44.9749 225.083 45.214 224.951 45.4318C224.823 45.6449 224.652 45.8153 224.439 45.9432C224.226 46.071 223.989 46.1349 223.729 46.1349Z" fill="#F8F8F8"/>
<path d="M15.2557 65.733C15.0726 65.1585 14.8264 64.6439 14.517 64.1894C14.214 63.7285 13.851 63.3371 13.428 63.0152C13.005 62.6869 12.5221 62.4375 11.9792 62.267C11.4425 62.0966 10.8523 62.0114 10.2083 62.0114C9.11616 62.0114 8.13131 62.2923 7.25379 62.8542C6.37626 63.416 5.68182 64.2399 5.17045 65.3258C4.6654 66.4053 4.41288 67.7279 4.41288 69.2936C4.41288 70.8655 4.66856 72.1944 5.17992 73.2803C5.69129 74.3662 6.39205 75.19 7.2822 75.7519C8.17235 76.3138 9.18561 76.5947 10.322 76.5947C11.3763 76.5947 12.2948 76.3801 13.0777 75.9508C13.8668 75.5215 14.476 74.9154 14.9053 74.1326C15.3409 73.3434 15.5587 72.4154 15.5587 71.3485L16.3163 71.4905H10.767V69.0758H18.3901V71.2822C18.3901 72.911 18.0429 74.3251 17.3485 75.5246C16.6604 76.7178 15.7071 77.6395 14.4886 78.2898C13.2765 78.94 11.8876 79.2652 10.322 79.2652C8.56692 79.2652 7.02651 78.8611 5.70076 78.053C4.38131 77.2449 3.35227 76.0991 2.61364 74.6155C1.875 73.1256 1.50568 71.358 1.50568 69.3125C1.50568 67.7658 1.72033 66.3769 2.14962 65.1458C2.57891 63.9148 3.18182 62.87 3.95833 62.0114C4.74116 61.1465 5.65972 60.4867 6.71401 60.0322C7.77462 59.5713 8.93308 59.3409 10.1894 59.3409C11.2374 59.3409 12.2128 59.4956 13.1155 59.8049C14.0246 60.1143 14.8327 60.553 15.5398 61.1212C16.2532 61.6894 16.8434 62.3649 17.3106 63.1477C17.7778 63.9242 18.0934 64.786 18.2576 65.733H15.2557ZM22.1046 79V59.6061H29.0175C30.52 59.6061 31.7669 59.8649 32.758 60.3826C33.7555 60.9003 34.5005 61.6168 34.9929 62.5322C35.4853 63.4413 35.7315 64.4924 35.7315 65.6856C35.7315 66.8725 35.4822 67.9173 34.9834 68.8201C34.491 69.7165 33.7461 70.4141 32.7486 70.9129C31.7574 71.4116 30.5106 71.661 29.008 71.661H23.7713V69.142H28.7429C29.6899 69.142 30.4601 69.0063 31.0535 68.7348C31.6532 68.4634 32.092 68.0688 32.3698 67.5511C32.6476 67.0335 32.7865 66.4116 32.7865 65.6856C32.7865 64.9533 32.6444 64.3188 32.3603 63.7822C32.0825 63.2456 31.6438 62.8352 31.044 62.5511C30.4506 62.2607 29.6709 62.1155 28.705 62.1155H25.0308V79H22.1046ZM31.6785 70.25L36.4702 79H33.1368L28.4399 70.25H31.6785ZM56.1387 69.303C56.1387 71.3737 55.7599 73.154 55.0024 74.6439C54.2448 76.1275 53.2063 77.2702 51.8868 78.072C50.5737 78.8674 49.0806 79.2652 47.4077 79.2652C45.7284 79.2652 44.229 78.8674 42.9096 78.072C41.5964 77.2702 40.5611 76.1244 39.8035 74.6345C39.0459 73.1446 38.6671 71.3674 38.6671 69.303C38.6671 67.2323 39.0459 65.4552 39.8035 63.9716C40.5611 62.4817 41.5964 61.339 42.9096 60.5436C44.229 59.7418 45.7284 59.3409 47.4077 59.3409C49.0806 59.3409 50.5737 59.7418 51.8868 60.5436C53.2063 61.339 54.2448 62.4817 55.0024 63.9716C55.7599 65.4552 56.1387 67.2323 56.1387 69.303ZM53.241 69.303C53.241 67.7247 52.9853 66.3958 52.474 65.3163C51.9689 64.2304 51.2745 63.4097 50.3906 62.8542C49.5131 62.2923 48.5188 62.0114 47.4077 62.0114C46.2902 62.0114 45.2928 62.2923 44.4152 62.8542C43.5377 63.4097 42.8433 64.2304 42.3319 65.3163C41.8269 66.3958 41.5743 67.7247 41.5743 69.303C41.5743 70.8813 41.8269 72.2134 42.3319 73.2992C42.8433 74.3788 43.5377 75.1995 44.4152 75.7614C45.2928 76.3169 46.2902 76.5947 47.4077 76.5947C48.5188 76.5947 49.5131 76.3169 50.3906 75.7614C51.2745 75.1995 51.9689 74.3788 52.474 73.2992C52.9853 72.2134 53.241 70.8813 53.241 69.303ZM72.2585 59.6061H75.1941V72.3617C75.1941 73.7191 74.8753 74.9217 74.2377 75.9697C73.6001 77.0114 72.7036 77.8321 71.5483 78.4318C70.393 79.0253 69.0388 79.322 67.4858 79.322C65.9391 79.322 64.5881 79.0253 63.4328 78.4318C62.2775 77.8321 61.381 77.0114 60.7434 75.9697C60.1057 74.9217 59.7869 73.7191 59.7869 72.3617V59.6061H62.7131V72.125C62.7131 73.0025 62.9056 73.7822 63.2907 74.464C63.6821 75.1458 64.2345 75.6824 64.9479 76.0739C65.6613 76.459 66.5073 76.6515 67.4858 76.6515C68.4706 76.6515 69.3198 76.459 70.0331 76.0739C70.7528 75.6824 71.3021 75.1458 71.6809 74.464C72.066 73.7822 72.2585 73.0025 72.2585 72.125V59.6061ZM79.4484 79V59.6061H86.3613C87.8701 59.6061 89.1201 59.8807 90.1113 60.4299C91.1024 60.9792 91.8442 61.7304 92.3366 62.6837C92.8291 63.6307 93.0753 64.6976 93.0753 65.8845C93.0753 67.0777 92.8259 68.1509 92.3272 69.1042C91.8347 70.0511 91.0898 70.8024 90.0923 71.358C89.1012 71.9072 87.8543 72.1818 86.3518 72.1818H81.598V69.7008H86.0866C87.0399 69.7008 87.8133 69.5366 88.4067 69.2083C89.0002 68.8737 89.4358 68.4192 89.7135 67.8447C89.9913 67.2702 90.1302 66.6168 90.1302 65.8845C90.1302 65.1521 89.9913 64.5019 89.7135 63.9337C89.4358 63.3655 88.997 62.9205 88.3972 62.5985C87.8038 62.2765 87.021 62.1155 86.0488 62.1155H82.3745V79H79.4484Z" fill="#F8F8F8"/>
</svg>
