<svg width="60" height="60" viewBox="0 0 60 60" fill="none" xmlns="http://www.w3.org/2000/svg">
<circle cx="30" cy="30" r="30" fill="#2E72B0"/>
<path fill-rule="evenodd" clip-rule="evenodd" d="M49 31C49 41.2173 41.2173 49 31 49C20.7827 49 12 41.2173 12 31C12 20.7827 20.7827 12 31 12C41.2173 12 49 20.7827 49 31ZM31 26C29.2006 26.7484 25.3931 27.6503 20 30C19.1242 30.3483 19.0418 30.6669 19 31C18.9294 31.563 20.0399 31.6981 21 32C21.1306 32.0411 20.8613 32.9549 21 33C21.9446 33.307 23.3395 32.9857 24 33C24.5992 33.0129 25.2617 32.507 26 32C31.039 28.5986 33.8367 27.0371 34 27C33.8918 26.9039 34.1152 26.9739 34 27C34.1082 27.0961 34.0115 27.9512 34 28C33.9302 28.2978 31.4322 30.6685 30 32C29.5535 32.4151 29.0647 32.9328 29 33C28.855 33.1506 29.1421 32.8631 29 33C28.1225 33.846 27.428 34.9641 29 36C29.7555 36.4978 30.3969 36.5893 31 37C31.6586 37.4485 32.15 37.4428 33 38C33.2165 38.1419 32.7986 38.8564 33 39C33.7665 39.5464 35.1493 40.0783 36 40C36.4943 39.9545 36.7407 39.3864 37 38C37.6129 34.7236 38.7216 27.9253 39 25C39.0244 24.7437 39.0246 24.144 39 24C38.9754 23.856 39.1872 23.1519 39 23C38.7783 22.8201 38.153 22.9973 38 23C37.3042 23.0123 36.1376 23.8631 31 26Z" fill="#F8F8F8"/>
</svg>
