<svg width="125" height="43" viewBox="0 0 125 43" fill="none" xmlns="http://www.w3.org/2000/svg">
<path d="M41.3515 20C41.3515 39.3899 41.154 40.3148 42.3515 41C43.0833 41.3426 44.4201 42 45.3515 42H47.3515V22C47.3515 11.1746 46.6176 2.47961 46.3515 2C46.0189 1.52039 44.6821 0.274062 43.3515 0H41.3515V20Z" fill="#2A2B2B"/>
<path d="M9.35152 13C-0.8544 18.2714 -2.52623 30.6335 6.35152 38C9.56709 40.6357 13.0388 42 18.3515 42H22.3515V40C22.3515 37.1615 20.9652 36.4731 16.3515 36C9.78059 35.2566 7.35152 31.5418 7.35152 26C7.35152 20.3906 10.6194 17 16.3515 17C20.1962 17 23.3942 17.8912 25.3515 21C26.5399 22.8247 26.3515 25.1066 26.3515 32C26.3515 40.9885 26.5767 42 30.3515 42C32.868 42 33.8408 40.7995 33.3515 31C32.9321 21.2005 31.5943 17.6495 26.3515 14C23.2059 11.8374 22.1749 11.2027 17.3515 11C12.8777 10.8648 12.1477 11.5808 9.35152 13Z" fill="#2A2B2B"/>
<path d="M64.3516 12.0001C58.6943 14.5297 55.3516 19.9423 55.3516 26.0001C55.3516 31.9913 58.6262 38.071 64.3516 41.0001C67.5551 42.5977 73.9436 42.4646 77.3516 41.0001C82.3272 38.8698 87.7372 31.4646 85.3516 30.0001C83.4431 28.8684 80.9416 29.4039 78.3516 32.0001C74.9436 35.3951 73.1685 36.9986 69.3516 36.0001C63.2172 34.3358 59.6252 27.9913 62.3516 22.0001C63.4421 19.4704 64.7615 19.0652 67.3516 18.0001C71.6456 16.0696 74.262 16.2722 78.3516 20.0001C81.6232 22.9957 83.0341 23.1983 85.3516 22.0001C86.6466 21.2678 86.6466 21.4631 85.3516 19.0001C83.6476 15.8047 80.5551 13.2649 77.3516 12.0001C73.8754 10.5355 67.7595 10.469 64.3516 12.0001Z" fill="#4BC574"/>
<path d="M101.351 11C97.9098 12.5097 94.4527 17.5688 93.3514 21C91.2176 27.5193 94.2253 35.2256 100.351 39C103.105 40.647 103.877 41.7255 108.351 42H114.351V40C114.351 36.8433 112.894 35.6862 108.351 35C103.189 34.3138 100.866 32.6371 99.3514 29C97.9748 25.5001 97.6994 24.6371 99.3514 21C100.384 18.7354 102.08 18.0294 104.351 17C108.137 15.2844 108.634 15.2158 112.351 17C116.894 19.196 118.351 21.9122 118.351 32C118.351 40.784 118.29 42 122.351 42H124.351V33C124.351 22.569 123.862 18.7057 120.351 15C119.112 13.7648 116.866 11.6862 115.351 11C111.703 9.35301 105 9.28438 101.351 11Z" fill="#2A2B2B"/>
</svg>
