<svg width="135" height="38" viewBox="0 0 135 38" fill="none" xmlns="http://www.w3.org/2000/svg">
<path d="M0.64856 19V37H2.64856C4.69667 37 4.39255 36.9146 4.64856 30L5.64856 23L9.64856 22C15.2809 21.4024 17.3685 20.1829 18.6486 16C21.1234 7.54878 15.9132 2 4.64856 2H0.64856V19ZM13.6486 8C15.1846 10.0488 15.1846 15.378 13.6486 17C12.1125 18.4512 7.01397 19.8537 5.64856 19C5.13653 18.7439 4.64856 15.3293 4.64856 12V6L8.64856 7C11.1234 7.2561 12.9659 7.06098 13.6486 8Z" fill="#A50A0A"/>
<path d="M26.6486 20.0002V37.0002H34.6486C42.628 37.0002 42.6486 37.1291 42.6486 35.0002C42.6486 32.9565 42.8562 33.0002 37.6486 33.0002H31.6486V28.0002C31.5646 25.1901 31.5646 22.426 31.6486 22.0002C31.8165 21.4893 34.1287 21.0002 36.6486 21.0002C40.9323 21.0002 40.6486 21.0439 40.6486 19.0002C40.6486 16.9565 40.9323 17.0002 36.6486 17.0002H31.6486V11.0002V6.00021H36.6486C42.1082 6.00021 42.9005 5.8736 42.6486 4.00021C42.3966 2.21196 41.956 2.25567 34.6486 2.00021H26.6486V20.0002Z" fill="#A50A0A"/>
<path d="M62.6485 1.00013C55.277 2.3578 50.42 8.85407 49.6485 17.0001C48.4485 30.1526 56.8769 38.6972 69.6485 37.0001C72.9914 36.5759 73.6485 36.2912 73.6485 34.0001C73.6485 31.8788 73.8485 31.491 72.6485 32.0001C62.1055 36.158 52.0771 26.8798 54.6485 15.0001C56.1914 7.95718 64.2199 3.7939 70.6485 6.00012C74.1628 7.18809 73.6485 6.46091 73.6485 4.00013C73.6485 2.81216 73.1628 2.16983 72.6485 2.00013C69.7342 1.06672 65.9914 0.406143 62.6485 1.00013Z" fill="#A50A0A"/>
<path d="M91.6486 4.00007C91.3057 5.10623 88.82 12.6613 85.6486 21.0001C82.5628 29.2537 79.6486 36.7448 79.6486 37.0001C79.6486 37.2553 80.5343 37.0001 81.6486 37.0001C83.1057 37.0001 83.8771 36.1273 84.6486 34.0001C87.3914 26.7675 86.3343 27.6597 94.6486 28.0001H102.649L103.649 33.0001C104.934 36.5738 106.02 37.0001 107.649 37.0001C108.763 37.0001 109.649 36.4255 109.649 36.0001C109.649 35.4895 107.077 28.1046 103.649 19.0001C97.6486 2.83314 96.9628 2.00007 94.6486 2.00007C92.9343 2.00007 92.1628 2.63865 91.6486 4.00007ZM97.6486 16.0001L100.649 24.0001H94.6486C91.3057 24.0001 88.6486 24.3404 88.6486 24.0001C88.6486 22.6386 94.3057 6.65972 94.6486 7.00007C94.82 7.17025 96.02 11.4903 97.6486 16.0001Z" fill="#FFD53F"/>
<path d="M121.649 2C115.909 4.06266 113.735 10.7887 117.649 15C118.779 16.2032 120.822 18.0546 122.649 19C128.388 22.008 129.649 23.7341 129.649 27C129.649 28.7189 129.518 30.2265 128.649 31C127.083 32.547 122.388 33.0313 118.649 32C116.475 31.3984 116.649 32.1092 116.649 34C116.649 36.8362 117.083 37 122.649 37C130.214 37 134.562 33.4458 134.649 27C134.649 22.5309 132.083 19.1486 127.649 17C122.083 14.2498 120.649 12.4924 120.649 10C120.649 6.21846 124.127 4.79678 128.649 6C131.431 6.7735 132.301 5.94538 132.649 5C133.431 3.02328 131.736 1 129.649 1C128.518 1 127.605 1.25783 126.649 1C125.692 0.828114 123.301 1.39839 121.649 2Z" fill="#A50A0A"/>
</svg>
