<svg width="135" height="27" viewBox="0 0 135 27" fill="none" xmlns="http://www.w3.org/2000/svg">
<path d="M0 13V27H11H21V24V21H18H15V11V0H7H0V13Z" fill="#0C3076"/>
<path d="M25 13V27H38H50V24V21H45H40V19V16H45H50V13V11H45H40V8V6H45H50V3V0H38H25V13Z" fill="#0C3076"/>
<path d="M54 13V27H61H68V13V0H61H54V13Z" fill="#0C3076"/>
<path d="M72 13V27H79H87V22V16H92H98V14C98 10.6605 97.1671 10 91 10H87V8V6H92L98 5V3V0H85H72V13Z" fill="#0C3076"/>
<path d="M101 1C100.858 1.49606 100.929 7.19685 101 14V27H109H116V22V16H118L120 17L121 22V27H128H135V13V0H128H121V5L120 10H118L116 11V5V0H109C103.824 0 101.284 0.362206 101 1Z" fill="#0C3076"/>
</svg>
